<svg width="16" height="16" viewBox="0 0 16 16" fill="none" xmlns="http://www.w3.org/2000/svg">
  <path d="M14.8213 7.57748C14.2638 6.40345 13.6004 5.44606 12.8312 4.70457L12.0251 5.5114C12.6828 6.13996 13.2559 6.96241 13.751 7.98657C12.4321 10.7167 10.5599 12.0136 8.00089 12.0136C7.23312 12.0136 6.52573 11.895 5.8787 11.6585L5.00511 12.5321C5.90285 12.9476 6.90144 13.155 8.00089 13.155C11.0478 13.155 13.3213 11.5676 14.8213 8.39425C14.8817 8.26657 14.913 8.12709 14.913 7.98586C14.913 7.84463 14.8817 7.70515 14.8213 7.57748ZM13.8128 2.49431L13.138 1.81746C13.1142 1.79365 13.0819 1.78027 13.0482 1.78027C13.0145 1.78027 12.9822 1.79365 12.9583 1.81746L11.2239 3.55044C10.268 3.0625 9.19408 2.81889 8.00089 2.81889C4.95397 2.81889 2.68122 4.40556 1.18049 7.5789C1.12016 7.70659 1.08887 7.84606 1.08887 7.98728C1.08887 8.12851 1.12016 8.26798 1.18049 8.39567C1.77993 9.65776 2.50153 10.6684 3.34458 11.4298L1.667 13.1074C1.6434 13.1312 1.63017 13.1633 1.63017 13.1969C1.63017 13.2304 1.6434 13.2625 1.667 13.2864L2.34385 13.9632C2.36769 13.987 2.40001 14.0004 2.4337 14.0004C2.46739 14.0004 2.49971 13.987 2.52354 13.9632L13.8135 2.674C13.8373 2.65017 13.8506 2.61785 13.8506 2.58416C13.8506 2.55047 13.8373 2.51815 13.8135 2.49431H13.8128ZM2.25152 7.98657C3.57185 5.25642 5.44404 3.95953 8.00089 3.95953C8.86524 3.95953 9.65219 4.10868 10.3653 4.40982L9.25019 5.52489C8.72241 5.2437 8.11825 5.1395 7.52676 5.22765C6.93527 5.3158 6.38775 5.59163 5.96489 6.01449C5.54202 6.43736 5.26619 6.98488 5.17804 7.57637C5.0899 8.16785 5.1941 8.77201 5.47529 9.2998L4.15283 10.6223C3.42128 9.97594 2.78988 9.10093 2.25081 7.98657H2.25152ZM6.1628 7.98657C6.16322 7.70711 6.22953 7.43168 6.35634 7.18264C6.48315 6.9336 6.66688 6.71797 6.89263 6.55324C7.11839 6.38851 7.3798 6.27932 7.65565 6.23454C7.9315 6.18976 8.21403 6.21064 8.4803 6.2955L6.2466 8.52777C6.19077 8.35256 6.1625 8.16975 6.1628 7.98586V7.98657Z" fill="#8B9296"/>
  <path d="M7.93654 9.76318C7.88185 9.76318 7.82787 9.76104 7.77389 9.75607L6.93652 10.5934C7.44018 10.7866 7.98902 10.8297 8.51666 10.7175C9.04429 10.6053 9.52811 10.3426 9.90958 9.96122C10.2911 9.57982 10.5538 9.09605 10.6661 8.56844C10.7785 8.04083 10.7355 7.49198 10.5424 6.98828L9.70431 7.82565C9.72798 8.08508 9.69445 8.34653 9.60609 8.59159C9.51774 8.83665 9.37671 9.05935 9.19294 9.24399C9.02789 9.40882 8.83198 9.5395 8.6164 9.62859C8.40082 9.71767 8.1698 9.76341 7.93654 9.76318Z" fill="#8B9296"/>
</svg>
