<svg width="16" height="16" viewBox="0 0 16 16" fill="none" xmlns="http://www.w3.org/2000/svg">
  <path d="M7.9998 13C5.5748 13 3.3498 11.5 1.3748 8.55C1.1498 8.2 1.1498 7.775 1.3748 7.425C3.3498 4.5 5.5748 3 7.9998 3C10.4248 3 12.6498 4.5 14.6248 7.45C14.8498 7.8 14.8498 8.225 14.6248 8.575C12.6498 11.5 10.4248 13 7.9998 13ZM7.9998 4C5.9248 4 3.9748 5.35 2.1998 8C3.9998 10.65 5.9498 12 7.9998 12C10.0498 12 12.0248 10.65 13.7998 8C12.0248 5.35 10.0748 4 7.9998 4Z" fill="#8B9296"/>
  <path d="M8 10C6.9 10 6 9.1 6 8C6 6.9 6.9 6 8 6C9.1 6 10 6.9 10 8C10 9.1 9.1 10 8 10ZM8 7C7.45 7 7 7.45 7 8C7 8.55 7.45 9 8 9C8.55 9 9 8.55 9 8C9 7.45 8.55 7 8 7Z" fill="#8B9296"/>
</svg>
